<?xml version="1.0" encoding="UTF-8" standalone="no" ?>
<!DOCTYPE svg PUBLIC "-//W3C//DTD SVG 1.1//EN" "http://www.w3.org/Graphics/SVG/1.1/DTD/svg11.dtd">
<svg xmlns="http://www.w3.org/2000/svg" xmlns:xlink="http://www.w3.org/1999/xlink" version="1.1" width="150" height="90.54" viewBox="0 -1.1368683772161603e-13 2500 1509.0000000000002" xml:space="preserve">
<desc>Created with Fabric.js 4.6.0</desc>
<defs>
</defs>
<g transform="matrix(4.88 0 0 4.88 1250 754.5)" id="aYivSPx-obYeOAGrk3Xfj"  >
<path style="stroke: none; stroke-width: 1; stroke-dasharray: none; stroke-linecap: butt; stroke-dashoffset: 0; stroke-linejoin: miter; stroke-miterlimit: 4; fill: rgb(255,255,255); fill-rule: nonzero; opacity: 1;" vector-effect="non-scaling-stroke"  transform=" translate(-256, -154.44)" d="M 120.81 80.561 L 217.378 80.561 L 217.378 88.23700000000001 L 129.66199999999998 88.23700000000001 L 129.66199999999998 146.00400000000002 L 212.14799999999997 146.00400000000002 L 212.14799999999997 153.67900000000003 L 129.66199999999998 153.67900000000003 L 129.66199999999998 217.10200000000003 L 218.38399999999996 217.10200000000003 L 218.38399999999996 224.77700000000004 L 120.80999999999996 224.77700000000004 z M 226.03 80.561 L 236.29 80.561 L 281.757 143.984 L 328.23 80.56 L 391.44100000000003 0 L 287.591 150.65 L 341.106 224.777 L 330.443 224.777 L 281.757 157.315 L 232.869 224.777 L 222.408 224.777 L 276.325 150.649 z M 344.928 88.23700000000001 L 344.928 80.56 L 454.976 80.56 L 454.976 88.236 L 404.277 88.236 L 404.277 224.776 L 395.425 224.776 L 395.425 88.23700000000002 z M 0 80.56 L 11.065 80.56 L 163.645 308.88300000000004 L 100.59200000000001 224.77600000000004 L 9.254000000000019 91.46800000000005 L 8.85200000000002 224.77800000000005 L 1.9539925233402755e-14 224.77800000000005 z M 454.084 214.784 C 452.275 214.784 450.919 213.384 450.919 211.572 C 450.919 209.762 452.275 208.36 454.084 208.36 C 455.914 208.36 457.249 209.76100000000002 457.249 211.572 C 457.249 213.38299999999998 455.91400000000004 214.784 454.084 214.784 z M 462.782 206.334 L 467.519 206.334 C 467.583 208.899 469.456 210.624 472.212 210.624 C 475.291 210.624 477.03499999999997 208.76999999999998 477.03499999999997 205.299 L 477.03499999999997 183.309 L 481.85799999999995 183.309 L 481.85799999999995 205.32 C 481.85799999999995 211.572 478.24099999999993 215.173 472.25499999999994 215.173 C 466.63499999999993 215.173 462.7819999999999 211.68 462.7819999999999 206.333 z M 488.166 206.054 L 492.94599999999997 206.054 C 493.35499999999996 209.007 496.23999999999995 210.882 500.39599999999996 210.882 C 504.27099999999996 210.882 507.11299999999994 208.877 507.11299999999994 206.118 C 507.11299999999994 203.74699999999999 505.3039999999999 202.32399999999998 501.19199999999995 201.35399999999998 L 497.18699999999995 200.384 C 491.56699999999995 199.06799999999998 489.006 196.35199999999998 489.006 191.78199999999998 C 489.006 186.242 493.527 182.55499999999998 500.30899999999997 182.55499999999998 C 506.61699999999996 182.55499999999998 511.22499999999997 186.24099999999999 511.505 191.48 L 506.811 191.48 C 506.359 188.613 503.861 186.82299999999998 500.24399999999997 186.82299999999998 C 496.43399999999997 186.82299999999998 493.89399999999995 188.65599999999998 493.89399999999995 191.45799999999997 C 493.89399999999995 193.67799999999997 495.52899999999994 194.95099999999996 499.57699999999994 195.89899999999997 L 502.99999999999994 196.73999999999998 C 509.37299999999993 198.22799999999998 511.99999999999994 200.81499999999997 511.99999999999994 205.493 C 511.99999999999994 211.44299999999998 507.3929999999999 215.173 500.0299999999999 215.173 C 493.13999999999993 215.173 488.50999999999993 211.615 488.16599999999994 206.053 z" stroke-linecap="round" />
</g>
</svg>