<?xml version="1.0" standalone="no"?>
<!DOCTYPE svg PUBLIC "-//W3C//DTD SVG 20010904//EN"
 "http://www.w3.org/TR/2001/REC-SVG-20010904/DTD/svg10.dtd">
<svg version="1.0" xmlns="http://www.w3.org/2000/svg"
 width="393.000000pt" height="396.000000pt" viewBox="0 0 393.000000 396.000000"
 preserveAspectRatio="xMidYMid meet">

<g transform="translate(0.000000,396.000000) scale(0.100000,-0.100000)"
fill="#000000" stroke="none">
<path d="M1790 3175 c-118 -16 -172 -29 -279 -71 -173 -68 -356 -200 -471
-338 -274 -331 -349 -771 -199 -1171 204 -543 770 -856 1336 -739 83 17 212
59 226 73 10 10 -9 81 -21 81 -4 0 -31 -9 -60 -19 -59 -22 -73 -15 -36 20 14
13 34 38 45 55 16 27 17 36 8 65 -22 63 -29 64 -66 9 -51 -75 -136 -154 -198
-184 -91 -43 -85 -60 -85 230 l0 255 73 -6 c39 -3 91 -8 115 -11 48 -6 51 1
24 56 -14 29 -23 35 -52 37 -19 2 -63 6 -97 9 l-63 6 0 214 0 214 255 0 255 0
0 -27 c-1 -16 -5 -62 -10 -103 -10 -83 -6 -90 46 -108 31 -10 32 -10 38 27 3
20 9 76 12 124 l7 87 213 0 214 0 0 -50 c0 -59 -31 -203 -60 -278 -11 -29 -20
-56 -20 -61 0 -12 66 -34 78 -27 5 3 18 31 30 63 59 163 82 356 63 520 -65
566 -489 990 -1053 1052 -116 13 -144 13 -268 -4z m101 -97 c2 -62 -3 -494 -7
-497 -5 -6 -338 26 -371 35 -30 8 -29 20 10 106 83 182 199 313 315 354 47 17
52 17 53 2z m177 -13 c97 -45 204 -165 271 -302 65 -135 62 -127 44 -140 -9
-7 -24 -13 -32 -13 -9 0 -77 -7 -151 -15 -74 -8 -152 -15 -172 -15 l-38 0 0
255 c0 197 3 255 13 255 6 0 36 -11 65 -25z m-504 -97 c-50 -65 -164 -278
-164 -306 0 -6 -4 -13 -8 -16 -18 -11 -262 67 -262 84 0 16 136 132 219 188
76 50 226 121 258 122 7 0 -12 -33 -43 -72z m841 21 c44 -21 108 -56 141 -78
66 -44 204 -167 204 -182 0 -5 -12 -14 -27 -20 -56 -22 -218 -66 -228 -62 -6
2 -20 29 -30 60 -24 70 -112 221 -167 287 l-41 48 34 -7 c19 -4 70 -25 114
-46z m-1106 -419 c28 -6 53 -16 56 -21 3 -4 -3 -48 -14 -96 -20 -90 -35 -193
-47 -320 -8 -87 7 -82 -244 -80 l-185 2 -3 39 c-2 21 4 73 12 116 30 147 74
258 148 377 l39 61 93 -32 c52 -19 117 -39 145 -46z m1575 -8 c82 -141 131
-284 145 -429 5 -53 4 -74 -5 -77 -7 -3 -104 -4 -216 -3 l-203 2 -3 35 c-7
100 -36 305 -52 375 -10 44 -16 83 -12 86 4 4 41 16 82 27 41 12 104 32 140
45 36 14 68 23 72 21 3 -2 27 -39 52 -82z m-1297 -47 c55 -8 149 -17 207 -21
l106 -7 0 -219 0 -219 -249 3 c-137 2 -252 6 -256 9 -13 13 26 311 56 432 11
42 3 41 136 22z m857 -1 c26 -67 74 -418 62 -449 -4 -11 -49 -14 -241 -14
-129 0 -242 2 -250 5 -13 5 -15 41 -15 219 l0 212 103 7 c56 4 145 13 197 20
129 18 137 18 144 0z m-1130 -711 c9 -87 26 -194 36 -238 11 -44 19 -85 20
-92 0 -6 -24 -17 -52 -23 -29 -7 -95 -28 -147 -46 -51 -19 -97 -32 -101 -29
-15 9 -90 141 -119 211 -40 95 -70 209 -78 299 l-6 75 215 0 214 0 18 -157z
m588 -43 c0 -110 1 -206 2 -212 1 -14 -37 -21 -229 -38 -72 -6 -148 -15 -168
-20 -45 -10 -48 -6 -71 100 -13 62 -46 313 -46 358 0 9 58 12 255 12 l255 0 2
-200z m-2 -575 c0 -206 -3 -255 -13 -255 -8 0 -41 14 -75 31 -94 47 -187 152
-256 291 -31 61 -56 119 -56 129 0 13 11 19 47 25 52 8 282 31 326 33 l27 1 0
-255z m-461 102 c41 -97 97 -193 153 -260 22 -27 38 -50 35 -53 -6 -6 -171 65
-229 99 -98 57 -271 207 -256 222 7 8 109 43 172 60 88 24 87 24 125 -68z"/>
<path d="M2140 1809 c0 -5 51 -138 134 -349 32 -80 87 -221 123 -315 36 -93
74 -190 83 -215 10 -25 22 -45 28 -45 5 0 43 48 83 108 40 59 77 107 83 107 6
0 84 -73 173 -162 l163 -163 82 83 83 82 -163 163 c-89 89 -162 167 -162 173
0 6 50 44 110 84 61 41 110 78 110 82 0 5 -8 11 -17 15 -22 7 -300 115 -473
183 -69 27 -190 75 -270 106 -80 31 -151 59 -157 61 -7 3 -13 4 -13 2z"/>
</g>
</svg>
