<svg width="64" height="64" viewBox="0 0 64 64" fill="none" xmlns="http://www.w3.org/2000/svg">
  <path d="M37.4122 62.9367C35.7772 64.9957 32.4621 63.8675 32.4227 61.2385L31.8467 22.786H57.7021C62.3852 22.786 64.997 28.1951 62.085 31.8627L37.4122 62.9367Z" fill="url(#paint0_linear)"/>
  <path d="M37.4122 62.9367C35.7772 64.9957 32.4621 63.8675 32.4227 61.2385L31.8467 22.786H57.7021C62.3852 22.786 64.997 28.1951 62.085 31.8627L37.4122 62.9367Z" fill="url(#paint1_linear)" fillOpacity="0.2"/>
  <path d="M26.897 1.0634C28.532 -0.99578 31.8472 0.13233 31.8866 2.7613L32.1389 41.214H6.60708C1.92396 41.214 -0.68802 35.805 2.22398 32.1373L26.897 1.0634Z" fill="#3ECF8E"/>
  <defs>
    <linearGradient id="paint0_linear" x1="53.9738" y1="54.974" x2="94.1635" y2="71.8295" gradientUnits="userSpaceOnUse" gradientTransform="matrix(0.5718 0 0 0.5718 0.986 -0.121)">
      <stop stopColor="#249361"/>
      <stop offset="1" stopColor="#3ECF8E"/>
    </linearGradient>
    <linearGradient id="paint1_linear" x1="36.1558" y1="30.578" x2="54.4844" y2="65.0806" gradientUnits="userSpaceOnUse" gradientTransform="matrix(0.5718 0 0 0.5718 0.986 -0.121)">
      <stop/>
      <stop offset="1" stopOpacity="0"/>
    </linearGradient>
  </defs>
</svg>
